<?xml version="1.0" encoding="UTF-8" standalone="no"?>
<!-- Created with Inkscape (http://www.inkscape.org/) -->

<svg
   xmlns:dc="http://purl.org/dc/elements/1.1/"
   xmlns:cc="http://creativecommons.org/ns#"
   xmlns:rdf="http://www.w3.org/1999/02/22-rdf-syntax-ns#"
   xmlns:svg="http://www.w3.org/2000/svg"
   xmlns="http://www.w3.org/2000/svg"
   xmlns:sodipodi="http://sodipodi.sourceforge.net/DTD/sodipodi-0.dtd"
   xmlns:inkscape="http://www.inkscape.org/namespaces/inkscape"
   width="2000"
   height="1030.7987"
   id="svg5591"
   version="1.1"
   inkscape:version="0.48.3.1 r9886"
   sodipodi:docname="logo.svg">
  <defs
     id="defs5593" />
  <sodipodi:namedview
     id="base"
     pagecolor="#ffffff"
     bordercolor="#666666"
     borderopacity="1.0"
     inkscape:pageopacity="0.0"
     inkscape:pageshadow="2"
     inkscape:zoom="0.24748737"
     inkscape:cx="1156.1368"
     inkscape:cy="481.78001"
     inkscape:document-units="px"
     inkscape:current-layer="layer1"
     showgrid="false"
     fit-margin-bottom="-0.1"
     fit-margin-top="0"
     fit-margin-left="0"
     fit-margin-right="0"
     inkscape:window-width="1198"
     inkscape:window-height="622"
     inkscape:window-x="152"
     inkscape:window-y="126"
     inkscape:window-maximized="0" />
  <metadata
     id="metadata5596">
    <rdf:RDF>
      <cc:Work
         rdf:about="">
        <dc:format>image/svg+xml</dc:format>
        <dc:type
           rdf:resource="http://purl.org/dc/dcmitype/StillImage" />
        <dc:title></dc:title>
      </cc:Work>
    </rdf:RDF>
  </metadata>
  <g
     inkscape:label="Layer 1"
     inkscape:groupmode="layer"
     id="layer1"
     transform="translate(118.66903,-106.80653)">
    <path
       style="fill:#e7b41b;fill-opacity:1"
       d="m 1060.025,1129.6764 c -10.1691,-5.1803 -24.1127,-17.3031 -30.986,-26.9386 l -12.4968,-17.5194 -1.6351,-175.83667 -1.635,-175.83662 11.3058,-22.16112 c 41.8473,-82.0276 180.6967,-48.9262 180.6967,43.07718 l 0,24.34874 -24.6084,10.88506 c -13.5345,5.98704 -30.6472,11.54874 -38.0281,12.35944 l -13.4198,1.4738 -2.8169,-30.98592 -2.8169,-30.9859 -14.0845,0 -14.0845,0 0,160.56338 0,160.56343 14.0845,0 14.0845,0 1.593,-63.38033 1.5929,-63.3803 -8.6352,0 -8.6352,0 0,-39.66422 0,-39.66478 46.4789,1.63662 46.4788,1.63606 1.7041,101.40844 c 1.9757,117.57351 -1.7303,136.66311 -30.8416,158.86701 l -20.3232,15.5015 -37.2415,1.7267 c -26.4755,1.2271 -42.5863,-0.9966 -55.7305,-7.6935 z m 230.9859,0 c -10.169,-5.1803 -24.1127,-17.3031 -30.9859,-26.9386 l -12.4968,-17.5194 -1.6351,-175.83667 -1.6351,-175.83662 11.3058,-22.16112 c 30.7556,-60.28564 138.3486,-60.85578 170.2511,-0.90142 l 10.4457,19.63044 0,170.69126 0,170.69123 -7.8133,18.7003 c -4.2973,10.2845 -16.2829,24.7307 -26.6345,32.1014 l -18.8212,13.4023 -36.7458,1.698 c -25.9799,1.2011 -42.1628,-1.0614 -55.2349,-7.7211 z m 63.5595,-227.55663 0,-160.56338 -14.0845,0 -14.0845,0 -1.5014,154.84956 c -1.6406,169.20735 -1.4897,170.70195 16.9692,168.08055 l 12.7012,-1.8033 0,-160.56343 z M -116.09563,1126.0522 c -1.48866,-3.8795 -2.04292,-107.1893 -1.2316,-229.57751 l 1.4751,-222.52394 61.971837,-1.49464 61.9718196,-1.49466 19.6060404,9.94536 c 10.78326,5.46986 25.36072,18.56 32.39436,29.08844 l 12.78834,19.1431 0,78.7831 0,78.78366 -11.77116,19.0462 c -6.47408,10.4755 -16.3133,21.47718 -21.8649,24.44846 l -10.09374,5.40168 29.87758,94.52675 c 33.67846,106.5521 34.01898,104.1702 -14.55984,101.8597 l -35.7183204,-1.6991 -23.9086196,-78.8733 -23.90856,-78.87321 -0.3645,80.28171 -0.3645,80.2817 -36.79652,0 c -24.271817,0 -37.717857,-2.4011 -39.503317,-7.0535 z m 107.2857566,-316.89019 0,-61.97182 -15.4929596,-1.78254 -15.49296,-1.78254 0,65.5369 0,65.5369 15.49296,-1.78252 15.4929596,-1.78254 0,-61.97184 z M 120.52409,1126.0522 c -1.48866,-3.8795 -2.04292,-107.1893 -1.2316,-229.57751 l 1.4751,-222.52394 38.02816,-1.66592 38.02818,-1.66592 0,231.24338 0,231.24341 -36.7965,0 c -24.27184,0 -37.71786,-2.4011 -39.50334,-7.0535 z m 186.05798,1.2563 c -5.78818,-9.3656 -81.5062,-446.11719 -78.25398,-451.37915 1.63004,-2.63776 21.60524,-4.7955 44.38948,-4.7955 l 41.4258,0 3.17036,21.12676 c 1.74372,11.61972 7.05882,64.22534 11.81138,116.9014 13.4876,149.4924 14.56484,149.74592 28.68112,6.7538 6.97482,-70.65182 14.09094,-132.1307 15.81358,-136.6197 l 3.13218,-8.16226 42.43035,0 c 29.26236,0 42.43032,2.09972 42.43032,6.76564 0,7.33632 -64.103,377.19321 -73.7693,425.62871 l -5.90282,29.5775 -35.88777,0 c -19.7383,0 -37.5001,-2.609 -39.4707,-5.7972 z m 185.77301,-1.2563 c -1.48868,-3.8795 -2.04294,-107.1893 -1.23162,-229.57751 l 1.4751,-222.52394 80.54266,-1.5645 80.54264,-1.56508 -1.6694,38.18478 -1.66942,38.18424 -40.84506,1.6552 -40.84508,1.65522 0,44.55492 0,44.55494 35.21128,1.67718 35.21126,1.67718 1.7005,36.10648 c 1.99872,42.43832 -0.74794,45.37578 -42.54558,45.49746 l -29.57746,0.0846 0,64.54196 0,64.54197 40.84508,1.6552 40.84506,1.6552 1.66586,38.0282 1.66586,38.0282 -79.30744,0 c -58.31724,0 -80.02388,-1.8671 -82.01424,-7.0535 z m 214.0845,0 c -1.48868,-3.8795 -2.04292,-107.1893 -1.2316,-229.57751 l 1.4751,-222.52394 61.9718,-1.49464 61.9719,-1.49466 19.606,9.94536 c 10.7833,5.46986 25.3607,18.56 32.3943,29.08844 l 12.7884,19.1431 0,78.7831 0,78.78366 -11.7712,19.0462 c -6.4741,10.4755 -16.3133,21.47718 -21.8649,24.44846 l -10.0937,5.40168 29.8776,94.52675 c 33.6784,106.5521 34.0189,104.1702 -14.5599,101.8597 l -35.7183,-1.6991 -23.9086,-78.8733 -23.9086,-78.87321 -0.3645,80.28171 -0.3639,80.2817 -36.7965,0 c -24.2719,0 -37.71788,-2.4011 -39.50334,-7.0535 z m 107.2857,-316.89019 0,-61.97182 -15.4929,-1.78254 -15.493,-1.78254 0,65.5369 0,65.5369 15.493,-1.78252 15.4929,-1.78254 0,-61.97184 z m 673.23952,92.85072 0,-231.39382 38.0282,1.66592 38.0282,1.66592 1.483,189.90536 1.4832,189.90479 43.5872,1.6445 43.5874,1.644 0,36.6197 0,36.6197 -83.0986,1.5589 -83.0986,1.5594 0,-231.39437 z m 205.3902,224.03947 c -1.4886,-3.8795 -2.0428,-107.1893 -1.2316,-229.57751 l 1.4752,-222.52394 61.9718,-1.49464 61.9718,-1.49466 19.606,9.94536 c 10.7834,5.46986 25.3608,18.56 32.3944,29.08844 l 12.7884,19.1431 -0.022,172.4062 -0.022,172.40625 -11.1952,18.3611 c -6.1572,10.0991 -19.4576,23.3994 -29.5564,29.5566 l -18.3612,11.1949 -63.5572,0 c -45.7194,0 -64.3168,-1.9583 -66.2638,-7.0326 z m 108.7834,-222.52399 -1.4976,-156.33802 -15.493,-1.78254 -15.4928,-1.78254 0,158.12056 0,158.12063 16.9904,0 16.9906,0 -1.4976,-156.33809 z M 1168.6549,602.31302 c -14.6355,-8.38818 -26.9788,-21.71944 -35.2112,-38.02986 l -12.6761,-25.11438 0,-177.89409 0,-177.89408 12.6761,-24.80787 c 6.9718,-13.64396 19.819,-30.01522 28.5493,-36.3803 l 15.8732,-11.57295 43.2817,-1.90648 43.2817,-1.90648 19.2003,13.14987 c 10.5601,7.2321 24.5038,20.30534 30.9859,29.05126 l 11.7856,15.90197 1.9662,46.9814 1.9661,46.98198 -10.4168,5.56056 c -5.7293,3.05802 -24.8827,7.36282 -42.5632,9.56562 l -32.1462,4.00452 -1.6566,-44.28 -1.6565,-44.28 -13.4474,-1.90142 c -21.8272,-3.08618 -22.9998,5.77128 -22.9998,173.7324 0,167.96113 1.1726,176.81861 22.9998,173.73241 l 13.4474,-1.90142 2.8169,-59.15492 2.8169,-59.15495 28.0055,2.02142 c 15.403,1.11154 34.0009,4.30028 41.3288,7.08676 l 13.3232,5.06537 -1.8921,64.3521 -1.8922,64.35268 -11.6157,15.5369 c -22.5973,30.22478 -39.5535,38.45407 -83.0363,40.29745 l -40.5593,1.71944 -22.5352,-12.91491 z M -118.66903,590.45498 c 0,-10.56056 11.40846,-121.29746 25.352117,-246.08169 13.94366,-124.78424 25.3521,-227.80393 25.3521,-228.93295 0,-4.65353 112.2667,-1.63944 115.19132,3.09296 3.56198,5.76338 53.822763,449.08338 53.822763,474.73858 l 0,16.38365 -40.845063,-1.65519 -40.84508,-1.65522 -1.45232,-16.9014 c -0.79876,-9.29578 -2.8555,-27.67606 -4.57054,-40.84508 l -3.11826,-23.94366 -19.1178004,0 -19.1177996,0 -3.03544,18.30986 c -1.66952,10.07042 -3.6858,28.4507 -4.48068,40.84508 l -1.44518,22.5352 -40.84506,1.65522 -40.845077,1.65519 0,-19.20055 z M 3.2572666,396.48595 c -1.90974,-24.01408 -5.29046,-66.47886 -7.51272,-94.36618 l -4.0405,-50.70424 -3.7434996,28.56396 c -2.05894,15.70986 -5.59364,58.17464 -7.85498,94.36618 l -4.1115,65.80227 15.3677796,0 15.36772,0 -3.4723,-43.66199 z M 149.53937,600.25048 c -4.4658,-11.63774 -4.4658,-466.3138 0,-477.95156 l 3.41966,-8.91154 38.4542,0 38.45424,0 2.98062,9.85916 c 1.63934,5.42252 14.47296,61.60619 28.5191,124.85295 14.0462,63.24676 26.26626,115.72168 27.15578,116.61126 0.88952,0.88958 12.6342,-49.58986 26.09932,-112.1769 13.46508,-62.58704 26.6315,-119.49859 29.2587,-126.47041 l 4.77674,-12.67606 39.63525,0 39.63528,0 -1.46766,246.47887 -1.46766,246.47887 -42.25352,0 -42.25353,0 -1.88546,-107.04224 -1.8854,-107.04227 -18.29504,67.60565 c -10.06226,37.1831 -20.0368,74.57746 -22.16558,83.09858 -6.89156,27.58592 -12.15532,16.95042 -34.8555,-70.42254 l -22.32146,-85.91549 -1.52756,111.26761 -1.52754,111.2676 -41.53166,0 -41.53166,0 -3.41966,-8.91154 z m 338.08309,0.1408 c -5.22052,-13.6045 -4.01228,-471.80282 1.26608,-480.12 l 4.56812,-7.19888 84.07796,1.56508 84.07804,1.5645 1.70376,32.86986 c 2.28608,44.10309 -2.5721,48.82027 -50.2809,48.82027 l -38.74682,0 0,47.88734 0,47.88732 30.52514,0 c 16.78884,0 34.53532,1.53858 39.43662,3.41972 l 8.91148,3.41972 0,38.23098 0,38.23098 -8.91148,3.41972 c -4.9013,1.88112 -22.64778,3.41972 -39.43662,3.41972 l -30.52514,0 0,70.18537 0,70.1859 43.66198,1.64508 43.66198,1.64564 0,39.43662 0,39.43662 -85.25782,1.55154 -85.2578,1.55154 -3.47458,-9.05464 z m 231.02032,0.0902 c -5.3616,-13.97182 -4.0068,-471.9538 1.4215,-480.51718 l 4.7579,-7.50536 72.6206,1.87156 72.6206,1.8721 17.6152,12.56508 c 9.6885,6.91098 21.7307,21.23774 26.7606,31.83717 l 9.1453,19.27268 0,79.0631 c 0,87.97972 -2.2302,97.79324 -27.9348,122.9245 l -17.9201,17.52 31.3782,100.42311 c 17.2579,55.23268 31.3781,102.43212 31.3781,104.88732 0,2.45578 -18.9052,4.4648 -42.0116,4.4648 l -42.0115,0 -16.7224,-54.92958 c -9.1973,-30.21126 -20.0809,-66.33802 -24.1856,-80.2817 l -7.4633,-25.3521 -2.8169,78.87324 -2.8169,78.87324 -40.1529,1.64112 -40.153,1.64169 -3.509,-9.14479 z m 120.4347,-339.96001 0,-66.94816 -12.6761,-3.39718 c -6.9718,-1.86874 -14.5775,-3.43156 -16.9014,-3.47382 -2.3239,-0.0564 -4.2254,31.61296 -4.2254,70.34536 l 0,70.42254 16.9015,0 16.9014,0 0,-66.94874 z m 144.354,339.96001 c -5.2905,-13.78648 -4.044,-471.89578 1.307,-480.33126 3.2604,-5.14028 16.23902,-6.81804 43.57572,-5.6338 l 38.9323,1.68618 0,245.07043 0,245.07043 -40.153,1.64112 -40.15292,1.64169 -3.5091,-9.14479 z m 379.58962,-10.02816 c 0,-10.56056 11.4085,-121.29748 25.3521,-246.08171 13.9437,-124.78422 25.3521,-227.80393 25.3521,-228.93295 0,-4.65352 112.2668,-1.63944 115.1914,3.09296 3.5619,5.76338 53.8227,449.08338 53.8227,474.7386 l 0,16.38365 -40.845,-1.65521 -40.8451,-1.6552 -1.4523,-16.90142 c -0.7988,-9.29576 -2.8555,-27.67606 -4.5706,-40.84506 l -3.1182,-23.94366 -19.1178,0 -19.1178,0 -3.0355,18.30986 c -1.6695,10.07042 -3.6858,28.4507 -4.4807,40.84506 l -1.4451,22.53522 -40.8451,1.6552 -40.8451,1.65521 0,-19.20055 z m 121.9263,-193.96903 c -1.9097,-24.01408 -5.2904,-66.47888 -7.5127,-94.3662 l -4.0405,-50.70422 -3.7435,28.56394 c -2.0589,15.70986 -5.5936,58.17464 -7.855,94.3662 l -4.1115,65.80227 15.3678,0 15.3677,0 -3.4723,-43.66199 z m 140.7376,203.99717 c -4.5262,-11.79492 -4.6112,-466.40056 -0.09,-478.18422 l 3.4198,-8.91156 33.0014,0 33.0016,0 36.293,111.26761 36.293,111.2676 0.525,-111.2676 0.5258,-111.26761 42.2534,0 42.2536,0 0,247.88733 0,247.88733 -30.2962,0 c -38.6866,0 -35.8386,4.50477 -74.731,-118.21408 l -33.001,-104.12903 -2.817,109.76283 -2.8168,109.76338 -40.153,1.64112 -40.153,1.64169 -3.509,-9.14479 z"
       id="path5570"
       inkscape:connector-curvature="0"
       inkscape:export-xdpi="46.080002"
       inkscape:export-ydpi="46.080002" />
  </g>
</svg>
