<?xml version="1.0" encoding="UTF-8" standalone="no"?>
<!-- Created with Inkscape (http://www.inkscape.org/) -->

<svg
   xmlns:dc="http://purl.org/dc/elements/1.1/"
   xmlns:cc="http://creativecommons.org/ns#"
   xmlns:rdf="http://www.w3.org/1999/02/22-rdf-syntax-ns#"
   xmlns:svg="http://www.w3.org/2000/svg"
   xmlns="http://www.w3.org/2000/svg"
   xmlns:sodipodi="http://sodipodi.sourceforge.net/DTD/sodipodi-0.dtd"
   xmlns:inkscape="http://www.inkscape.org/namespaces/inkscape"
   width="3144.0007"
   height="1031.0348"
   id="svg5591"
   version="1.1"
   inkscape:version="0.48.3.1 r9886"
   sodipodi:docname="logo.svg">
  <defs
     id="defs5593" />
  <sodipodi:namedview
     id="base"
     pagecolor="#ffffff"
     bordercolor="#666666"
     borderopacity="1.0"
     inkscape:pageopacity="0.0"
     inkscape:pageshadow="2"
     inkscape:zoom="0.175"
     inkscape:cx="2247.7759"
     inkscape:cy="604.11692"
     inkscape:document-units="px"
     inkscape:current-layer="layer1-3"
     showgrid="false"
     fit-margin-bottom="-0.1"
     fit-margin-top="0"
     fit-margin-left="0"
     fit-margin-right="0"
     inkscape:window-width="1198"
     inkscape:window-height="622"
     inkscape:window-x="152"
     inkscape:window-y="126"
     inkscape:window-maximized="0" />
  <metadata
     id="metadata5596">
    <rdf:RDF>
      <cc:Work
         rdf:about="">
        <dc:format>image/svg+xml</dc:format>
        <dc:type
           rdf:resource="http://purl.org/dc/dcmitype/StillImage" />
        <dc:title></dc:title>
      </cc:Work>
    </rdf:RDF>
  </metadata>
  <g
     inkscape:label="Layer 1"
     inkscape:groupmode="layer"
     id="layer1"
     transform="translate(1262.669,-106.57043)">
    <path
       style="fill:#e7b41b;fill-opacity:1"
       d="m 1060.0254,1129.6764 c -10.1691,-5.1803 -24.1127,-17.3031 -30.986,-26.9386 l -12.4968,-17.5194 -1.6351,-175.83675 -1.635,-175.83668 11.3058,-22.16112 c 41.8473,-82.02763 180.6967,-48.92622 180.6967,43.07719 l 0,24.34875 -24.6084,10.88506 c -13.5345,5.98704 -30.6472,11.54875 -38.0281,12.35945 l -13.4198,1.4738 -2.8169,-30.98593 -2.8169,-30.98591 -14.0845,0 -14.0845,0 0,160.56343 0,160.56351 14.0845,0 14.0845,0 1.593,-63.38038 1.5929,-63.38032 -8.6352,0 -8.6352,0 0,-39.66423 0,-39.66479 46.4789,1.63662 46.4788,1.63606 1.7041,101.40847 c 1.9757,117.57357 -1.7303,136.66317 -30.8416,158.86707 l -20.3232,15.5015 -37.2415,1.7267 c -26.4755,1.2271 -42.5863,-0.9966 -55.7305,-7.6935 z m 230.986,0 c -10.169,-5.1803 -24.1127,-17.3031 -30.9859,-26.9386 l -12.4968,-17.5194 -1.6351,-175.83675 -1.6351,-175.83668 11.3058,-22.16112 c 30.7556,-60.28566 138.3486,-60.8558 170.2511,-0.90142 l 10.4457,19.63044 0,170.69132 0,170.69131 -7.8133,18.7003 c -4.2973,10.2845 -16.2829,24.7307 -26.6345,32.1014 l -18.8212,13.4023 -36.7458,1.698 c -25.9799,1.2011 -42.1628,-1.0614 -55.2349,-7.7211 z m 63.5595,-227.55671 0,-160.56343 -14.0845,0 -14.0845,0 -1.5014,154.84961 c -1.6406,169.20743 -1.4897,170.70203 16.9692,168.08063 l 12.7012,-1.8033 0,-160.56351 z M -116.09563,1126.0522 c -1.48866,-3.8795 -2.04292,-107.1893 -1.2316,-229.57759 l 1.4751,-222.52402 61.971859,-1.49464 61.9718403,-1.49466 19.6060467,9.94537 c 10.783264,5.46986 25.360729,18.56 32.394371,29.08845 l 12.788345,19.1431 0,78.78313 0,78.78369 -11.771164,19.0462 C 54.635085,916.22674 44.795862,927.22842 39.24426,930.1997 l -10.093743,5.40168 29.87759,94.52682 c 33.678471,106.5521 34.018991,104.1702 -14.559845,101.8597 l -35.7183325,-1.6991 -23.9086275,-78.8733 -23.908568,-78.87327 -0.3645,80.28177 -0.3645,80.2817 -36.796533,0 c -24.271821,0 -37.717871,-2.4011 -39.503331,-7.0535 z m 107.2857936,-316.8903 0,-61.97184 -15.4929646,-1.78254 -15.492965,-1.78254 0,65.53692 0,65.53692 15.492965,-1.78252 15.4929646,-1.78254 0,-61.97186 z M 120.52417,1126.0522 c -1.48866,-3.8795 -2.04292,-107.1893 -1.2316,-229.57759 l 1.4751,-222.52402 38.02817,-1.66592 38.0282,-1.66592 0,231.24346 0,231.24349 -36.79652,0 c -24.27184,0 -37.71787,-2.4011 -39.50335,-7.0535 z m 186.05804,1.2563 c -5.78818,-9.3656 -81.50622,-446.11734 -78.254,-451.37931 1.63004,-2.63776 21.60524,-4.7955 44.38949,-4.7955 l 41.42582,0 3.17036,21.12677 c 1.74372,11.61972 7.05882,64.22536 11.81138,116.90144 13.48761,149.49245 14.56485,149.74597 28.68113,6.7538 6.97482,-70.65184 14.09095,-132.13074 15.81359,-136.61974 l 3.13218,-8.16227 42.43036,0 c 29.26237,0 42.43034,2.09972 42.43034,6.76565 0,7.33632 -64.10303,377.19336 -73.76933,425.62886 l -5.90282,29.5775 -35.88778,0 c -19.73831,0 -37.50012,-2.609 -39.47072,-5.7972 z m 185.77308,-1.2563 c -1.48868,-3.8795 -2.04294,-107.1893 -1.23162,-229.57759 l 1.4751,-222.52402 80.54268,-1.5645 80.54267,-1.56508 -1.6694,38.1848 -1.66942,38.18425 -40.84507,1.6552 -40.8451,1.65522 0,44.55493 0,44.55496 35.21129,1.67718 35.21128,1.67718 1.7005,36.10649 c 1.99872,42.43834 -0.74794,45.3758 -42.5456,45.49748 l -29.57747,0.0846 0,64.54198 0,64.54202 40.8451,1.6552 40.84507,1.6552 1.66586,38.0282 1.66586,38.0282 -79.30747,0 c -58.31726,0 -80.0239,-1.8671 -82.01426,-7.0535 z m 214.08457,0 c -1.48868,-3.8795 -2.04292,-107.1893 -1.2316,-229.57759 l 1.4751,-222.52402 61.97182,-1.49464 61.97192,-1.49466 19.60601,9.94537 c 10.7833,5.46986 25.36071,18.56 32.39431,29.08845 l 12.7884,19.1431 0,78.78313 0,78.78369 -11.7712,19.0462 c -6.4741,10.47551 -16.31331,21.47719 -21.86491,24.44847 l -10.0937,5.40168 29.87761,94.52682 c 33.67841,106.5521 34.01891,104.1702 -14.55991,101.8597 l -35.71831,-1.6991 -23.90861,-78.8733 -23.90861,-78.87327 -0.3645,80.28177 -0.3639,80.2817 -36.79651,0 c -24.27191,0 -37.71789,-2.4011 -39.50335,-7.0535 z m 107.28573,-316.8903 0,-61.97184 -15.4929,-1.78254 -15.49301,-1.78254 0,65.53692 0,65.53692 15.49301,-1.78252 15.4929,-1.78254 0,-61.97186 z m 673.23971,92.85075 0,-231.3939 38.0283,1.66592 38.0282,1.66592 1.483,189.90543 1.4832,189.90488 43.5872,1.6445 43.5874,1.644 0,36.6197 0,36.6197 -83.0986,1.5589 -83.0987,1.5594 0,-231.39445 z m 205.3903,224.03955 c -1.4886,-3.8795 -2.0428,-107.1893 -1.2316,-229.57759 l 1.4752,-222.52402 61.9718,-1.49464 61.9719,-1.49466 19.606,9.94537 c 10.7834,5.46986 25.3608,18.56 32.3944,29.08845 l 12.7884,19.1431 -0.022,172.40626 -0.022,172.40633 -11.1952,18.3611 c -6.1572,10.0991 -19.4576,23.3994 -29.5564,29.5566 l -18.3612,11.1949 -63.5573,0 c -45.7194,0 -64.3168,-1.9583 -66.2638,-7.0326 z m 108.7834,-222.52407 -1.4976,-156.33807 -15.493,-1.78254 -15.4928,-1.78254 0,158.12061 0,158.12071 16.9904,0 16.9906,0 -1.4976,-156.33817 z M 1168.6553,602.31284 c -14.6355,-8.38818 -26.9788,-21.71945 -35.2112,-38.02987 l -12.6761,-25.11439 0,-177.89415 0,-177.89414 12.6761,-24.80788 c 6.9718,-13.64396 19.819,-30.01523 28.5493,-36.38031 l 15.8732,-11.57296 43.2818,-1.90648 43.2817,-1.90648 19.2003,13.14988 c 10.5601,7.2321 24.5038,20.30534 30.9859,29.05127 l 11.7856,15.90197 1.9662,46.98142 1.9661,46.98199 -10.4168,5.56057 c -5.7293,3.05802 -24.8827,7.36282 -42.5632,9.56562 l -32.1462,4.00452 -1.6566,-44.28001 -1.6565,-44.28002 -13.4474,-1.90142 c -21.8273,-3.08618 -22.9999,5.77128 -22.9999,173.73246 0,167.96118 1.1726,176.81867 22.9999,173.73247 l 13.4474,-1.90142 2.8169,-59.15494 2.8169,-59.15497 28.0055,2.02142 c 15.403,1.11154 34.0009,4.30028 41.3288,7.08676 l 13.3232,5.06537 -1.8921,64.35212 -1.8922,64.3527 -11.6157,15.53691 c -22.5973,30.22479 -39.5535,38.45408 -83.0363,40.29746 l -40.5594,1.71944 -22.5352,-12.91491 z M -118.66903,590.4548 c 0,-10.56057 11.40846,-121.29751 25.352126,-246.08178 13.943664,-124.78428 25.352108,-227.804 25.352108,-228.93302 0,-4.65354 112.266738,-1.63944 115.191359,3.09296 3.561981,5.76338 53.822777,449.08353 53.822777,474.73874 l 0,16.38365 -40.845073,-1.65519 -40.845093,-1.65522 -1.452321,-16.9014 c -0.79876,-9.29579 -2.855501,-27.67607 -4.570542,-40.8451 l -3.118261,-23.94367 -19.1178064,0 -19.1178056,0 -3.035441,18.30987 c -1.669521,10.07042 -3.685802,28.45071 -4.480682,40.84509 l -1.44518,22.53521 -40.845074,1.65522 -40.845091,1.65519 0,-19.20055 z M 3.2573077,396.4857 C 1.347567,372.47161 -2.0331541,330.00682 -4.2554148,302.11949 l -4.0405014,-50.70426 -3.7435008,28.56397 c -2.058941,15.70987 -5.593642,58.17466 -7.854983,94.36621 l -4.111501,65.80229 15.3677847,0 15.3677252,0 -3.4723012,-43.662 z M 149.53946,600.2503 c -4.4658,-11.63775 -4.4658,-466.31396 0,-477.95172 l 3.41966,-8.91155 38.45421,0 38.45426,0 2.98062,9.85917 c 1.63934,5.42252 14.47296,61.60621 28.51911,124.85299 14.0462,63.24678 26.26627,115.72172 27.15579,116.6113 0.88952,0.88958 12.6342,-49.58988 26.09933,-112.17694 13.46508,-62.58706 26.6315,-119.49863 29.25871,-126.47045 l 4.77674,-12.67607 39.63526,0 39.63529,0 -1.46766,246.47896 -1.46766,246.47895 -42.25353,0 -42.25355,0 -1.88546,-107.04228 -1.8854,-107.0423 -18.29504,67.60567 c -10.06227,37.18311 -20.03681,74.57749 -22.16559,83.09861 -6.89156,27.58593 -12.15532,16.95043 -34.85551,-70.42256 l -22.32147,-85.91552 -1.52756,111.26764 -1.52754,111.26764 -41.53167,0 -41.53168,0 -3.41966,-8.91154 z m 338.0832,0.1408 c -5.22052,-13.60451 -4.01228,-471.80298 1.26608,-480.12016 l 4.56813,-7.19889 84.07798,1.56509 84.07807,1.5645 1.70376,32.86987 c 2.28608,44.1031 -2.5721,48.82028 -50.28091,48.82028 l -38.74684,0 0,47.88736 0,47.88734 30.52515,0 c 16.78885,0 34.53534,1.53858 39.43664,3.41972 l 8.91148,3.41972 0,38.23099 0,38.23099 -8.91148,3.41972 c -4.9013,1.88113 -22.64779,3.41973 -39.43664,3.41973 l -30.52515,0 0,70.18539 0,70.18592 43.662,1.64508 43.66199,1.64564 0,39.43664 0,39.43663 -85.25785,1.55154 -85.25782,1.55154 -3.47459,-9.05464 z m 231.0204,0.0902 c -5.3616,-13.97183 -4.0068,-471.95396 1.4215,-480.51734 l 4.7579,-7.50537 72.62063,1.87157 72.62062,1.8721 17.61521,12.56508 c 9.6885,6.91098 21.73071,21.23775 26.76061,31.83718 l 9.1453,19.27269 0,79.06312 c 0,87.97975 -2.2302,97.79328 -27.93481,122.92455 l -17.9201,17.52 31.37821,100.42315 c 17.2579,55.23269 31.37811,102.43215 31.37811,104.88735 0,2.45578 -18.90521,4.4648 -42.01162,4.4648 l -42.01151,0 -16.72241,-54.9296 c -9.1973,-30.21127 -20.0809,-66.33804 -24.18561,-80.28172 l -7.4633,-25.35211 -2.8169,78.87326 -2.8169,78.87327 -40.15291,1.64112 -40.15302,1.64169 -3.509,-9.14479 z m 120.43474,-339.96013 0,-66.94818 -12.6761,-3.39718 c -6.9718,-1.86874 -14.57751,-3.43156 -16.90141,-3.47382 -2.3239,-0.0564 -4.2254,31.61297 -4.2254,70.34538 l 0,70.42257 16.90151,0 16.9014,0 0,-66.94877 z M 983.43185,600.4813 c -5.2905,-13.78649 -4.044,-471.89594 1.307,-480.33142 3.2604,-5.14028 16.23905,-6.81805 43.57575,-5.6338 l 38.9323,1.68618 0,245.07051 0,245.07051 -40.153,1.64112 -40.15295,1.64169 -3.5091,-9.14479 z m 379.58975,-10.02816 c 0,-10.56057 11.4085,-121.29753 25.3521,-246.0818 13.9437,-124.78426 25.3521,-227.804 25.3521,-228.93302 0,-4.65353 112.2669,-1.63944 115.1915,3.09296 3.5619,5.76338 53.8227,449.08353 53.8227,474.73876 l 0,16.38365 -40.845,-1.65521 -40.8452,-1.6552 -1.4523,-16.90142 c -0.7988,-9.29577 -2.8555,-27.67607 -4.5706,-40.84508 l -3.1182,-23.94367 -19.1178,0 -19.1178,0 -3.0355,18.30987 c -1.6695,10.07042 -3.6858,28.45071 -4.4807,40.84507 l -1.4451,22.53523 -40.8451,1.6552 -40.8451,1.65521 0,-19.20055 z m 121.9263,-193.9691 c -1.9097,-24.01409 -5.2904,-66.4789 -7.5127,-94.36623 l -4.0405,-50.70424 -3.7435,28.56395 c -2.0589,15.70987 -5.5936,58.17466 -7.855,94.36623 l -4.1115,65.80229 15.3678,0 15.3677,0 -3.4723,-43.662 z m 140.7377,203.99724 c -4.5262,-11.79492 -4.6112,-466.40072 -0.09,-478.18438 l 3.4198,-8.91157 33.0014,0 33.0016,0 36.293,111.26765 36.293,111.26764 0.525,-111.26764 0.5258,-111.26765 42.2535,0 42.2536,0 0,247.88742 0,247.88741 -30.2962,0 c -38.6867,0 -35.8387,4.50477 -74.7311,-118.21412 l -33.001,-104.12906 -2.817,109.76286 -2.8168,109.76342 -40.153,1.64112 -40.153,1.64169 -3.509,-9.14479 z"
       id="path5570"
       inkscape:connector-curvature="0"
       inkscape:export-xdpi="46.080002"
       inkscape:export-ydpi="46.080002" />
    <g
       transform="translate(-965.42767,260.20953)"
       id="layer1-3"
       inkscape:label="Layer 1">
      <path
         inkscape:connector-curvature="0"
         id="path5652"
         d="m 218.2082,-151.18437 c -283.3191,0 -512.99483,229.675693 -512.99483,512.99477 0,116.30041 38.6815,223.49632 103.908,309.54229 l 9.7499,-1.09089 c 93.81593,-11.16979 156.64003,-34.7962 167.24833,-62.79482 7.4218,-19.58829 -0.6928,-43.60607 -24.2043,-71.38563 -22.6054,-26.70913 -30.1559,-42.81035 -33.5451,-71.99927 -2.2198,-19.11836 1.6499,-29.51001 16.3635,-43.90864 29.641,-29.00646 86.4007,-46.36356 231.3385,-70.77201 39.014,-6.57019 78.6097,-14.00244 87.9537,-16.49983 27.0058,-7.21793 31.8047,-14.12783 16.3634,-23.65885 -9.1834,-5.66841 -18.9642,-8.46371 -74.7946,-21.54523 -88.6735,-20.77694 -116.7261,-35.85073 -116.7261,-62.59027 0,-25.54148 32.664,-39.28237 129.6123,-54.5449 58.9237,-9.27634 78.3527,-14.75077 79.431,-22.36341 1.0933,-7.71869 -13.7353,-20.51259 -32.1815,-27.74972 -8.5038,-3.33629 -15.4089,-6.36246 -15.4089,-6.74993 0,-0.38744 4.6636,-0.17498 10.3635,0.47727 64.5932,7.39033 102.7358,17.89101 106.3625,29.31788 3.0443,9.59164 -7.069,15.2086 -65.4538,35.99964 -54.7443,19.49463 -73.6498,29.06067 -79.7719,40.49958 -8.3938,15.68435 13.4108,24.11288 121.226,46.90862 102.1793,21.60407 133.523,30.09353 161.1802,43.63591 12.6016,6.17043 23.1816,16.03245 23.1816,21.6816 0,19.69304 -29.2391,30.63566 -145.6349,54.47672 -143.025,29.29549 -172.1289,48.81709 -147.544,99.06717 7.3771,15.0778 29.3415,37.26887 69.5448,70.4311 73.3941,60.54019 98.8625,101.23219 96.749,154.43024 -0.6646,16.73058 -1.7543,20.86476 -9.2045,35.93145 -19.726,39.89281 -82.8127,85.00354 -164.9983,118.02153 -10.9066,4.38163 -20.7333,8.71446 -22.5679,9.95444 4.7852,0.132 9.6373,0.27273 14.4544,0.27273 283.319,0 512.9947,-229.6757 512.9947,-512.99477 0,-283.319077 -229.6757,-512.99477 -512.9947,-512.99477 z"
         style="fill:#e7b41b;fill-opacity:1;fill-rule:evenodd;stroke:#e7b41b;stroke-width:4.90946198px;stroke-linecap:butt;stroke-linejoin:miter;stroke-opacity:1" />
    </g>
  </g>
</svg>
